<?xml version="1.0" encoding="UTF-8" standalone="no"?>
<svg
   version="1.1"
   id="svg1"
   viewBox="0 0 2102.667 1356.1361"
   xmlns="http://www.w3.org/2000/svg">
  <g id="g1" transform="translate(-113.16047,-123.8256)">
    <g id="g5" transform="translate(-50.061348,-31.288348)">
      <path id="path_noise" style="fill:#708cbe" d="m 463.87244,1456.25 c -1.24387,-1.5861 -1.2085,-1.6214 0.37756,-0.3776 1.66575,1.3064 2.19548,2.1276 1.37244,2.1276 -0.20765,0 -0.99515,-0.7875 -1.75,-1.75 z m -3,-4 c -1.24387,-1.5861 -1.2085,-1.6214 0.37756,-0.3776 1.66575,1.3064 2.19548,2.1276 1.37244,2.1276 -0.20765,0 -0.99515,-0.7875 -1.75,-1.75 z M 228.15789,1360 c 0,-1.375 0.22698,-1.9375 0.50439,-1.25 0.27741,0.6875 0.27741,1.8125 0,2.5 -0.27741,0.6875 -0.50439,0.125 -0.50439,-1.25 z M 324,1360.6224 c 0,-0.2076 0.7875,-0.9951 1.75,-1.75 1.58606,-1.2438 1.62143,-1.2085 0.37756,0.3776 -1.30637,1.6657 -2.12756,2.1955 -2.12756,1.3724 z" />
      
      <path id="path_red" style="fill:#c50b3c" d="m 163.35447,968.51866 c 0.68953,-1.79689 140.63387,-248.72089 141.53568,-249.73183 0.59675,-0.66896 43.0683,-4.39472 397.10985,-34.83592 76.725,-6.59697 165.6,-14.24239 197.5,-16.98982 31.9,-2.74742 73.75,-6.34941 93,-8.00442 19.25,-1.655 53,-4.56005 75,-6.45567 22,-1.89561 63.85,-5.49349 93,-7.99529 70.4394,-6.04544 327.4765,-28.15164 349,-30.01536 9.35,-0.80962 59.075,-5.08748 110.5,-9.50636 147.0486,-12.63569 240.6224,-20.68187 291,-25.0224 25.575,-2.20354 54.375,-4.68161 64,-5.50684 9.625,-0.82523 27.736,-2.39014 40.2468,-3.47758 12.5107,-1.08744 23.0095,-1.97717 23.3306,-1.97717 0.3211,0 -2.04,2.33928 -5.2468,5.19839 -21.5325,19.19775 -35.5568,38.74384 -41.4727,57.80161 -3.3004,10.63217 -3.2833,24.67501 0.042,34.82758 2.6415,8.06349 7.8674,16.79534 14.0962,23.55276 l 4.0457,4.38915 -3.2711,0.59674 C 2001.2935,696.36548 165.15802,970 163.93046,970 c -0.62944,0 -0.88864,-0.6666 -0.57599,-1.48134 z" />
      
      <path id="path_blue" style="fill:#00328c" d="M 235.20626,1468.5987 C 218.59282,1444.7349 205,1424.7917 205,1424.2804 c 0,-0.5113 5.56665,-13.721 12.37034,-29.355 l 12.37034,-28.4254 -1.93636,-13.3506 c -1.06499,-7.3429 -1.79415,-13.4607 -1.62034,-13.5952 0.17381,-0.1345 3.11443,-2.1214 6.5347,-4.4154 17.04916,-11.4347 39.91882,-31.8878 53.26729,-47.6388 8.33972,-9.8407 20.04903,-26.6384 25.09482,-36 5.20018,-9.648 7.76972,-17.8973 8.86132,-28.4484 1.68313,-16.2686 6.41587,-22.7241 25.4554,-34.7215 90.42037,-56.9765 154.32445,-117.0994 198.11108,-186.3889 8.67356,-13.72533 23.20173,-42.9795 27.31094,-54.99374 l 3.26724,-9.55254 87.70662,-13.27072 C 710.03202,916.82531 807.1,902.13452 877.5,891.478 c 70.4,-10.65652 215.975,-32.69037 323.5,-48.9641 107.525,-16.27374 244.325,-36.98667 304,-46.02874 90.276,-13.67878 281.6995,-42.65311 480.2333,-72.68925 22.4034,-3.3894 40.9597,-5.93621 41.2364,-5.65957 0.2766,0.27663 -0.138,3.85273 -0.9213,7.94688 -4.8533,25.36562 -2.0666,46.36625 7.6116,57.36121 9.5194,10.81464 25.4973,13.98063 45.2968,8.9755 7.5101,-1.8985 14.5432,-4.481 14.5432,-5.34018 0,-0.35669 -1.2984,-1.41553 -2.8854,-2.35297 -1.5869,-0.93744 -6.0765,-4.89561 -9.9769,-8.79594 -17.4528,-17.45286 -18.2936,-35.06037 -2.3894,-50.04074 3.1634,-2.9797 6.7573,-6.08645 7.9863,-6.90387 l 2.2345,-1.48623 -2.9816,-6 c -9.1619,-18.43695 -9.5503,-43.77595 -1.0035,-65.45941 13.466,-34.16358 44.8986,-71.56852 87.8939,-104.59418 5.5687,-4.27738 10.0117,-7.87936 9.8734,-8.00441 -0.1382,-0.12505 -4.7513,0.17749 -10.2513,0.67229 -5.5,0.49481 -53.875,4.49956 -107.5,8.89944 -128.9188,10.57768 -449.7147,36.92461 -572,46.97831 -53.625,4.40878 -155.1,12.74764 -225.5,18.53079 -70.4,5.78316 -144.2,11.84983 -164,13.4815 -19.8,1.63167 -101.925,8.37756 -182.5,14.99087 -80.575,6.61331 -160.36407,13.17217 -177.30904,14.57523 -16.94498,1.40306 -31.8681,2.41119 -33.16251,2.24029 -1.94322,-0.25656 0.0281,-2.15645 11.30904,-10.89915 C 797.44026,583.54448 894.20666,527.44944 1004,478.76355 c 23.3313,-10.34586 50.3793,-21.62858 67,-27.94821 5.775,-2.19581 10.6529,-4.14289 10.8397,-4.32686 0.1868,-0.18397 -3.7425,-2.50663 -8.7319,-5.16148 -4.9893,-2.65485 -9.0797,-5.08224 -9.0896,-5.39421 -0.01,-0.31196 7.7443,-4.23068 17.2318,-8.70825 l 17.25,-8.14105 3,-8.06293 c 3.3947,-9.12382 0.9347,-6.97313 27.5,-24.042 119.7802,-76.96176 239.2283,-132.31301 352.5,-163.34559 34.6708,-9.4986 72.5508,-16.96633 102.25,-20.15773 3.4375,-0.36939 6.25,-0.96427 6.25,-1.32196 0,-0.35768 -1.8467,-6.1918 -4.1038,-12.9647 -2.2571,-6.77289 -3.8736,-12.54448 -3.5924,-12.82575 1.3923,-1.39228 68.2529,-6.98136 108.4364,-9.06452 l 33.2402,-1.72321 1.6399,-4.93719 1.6398,-4.93718 13.62,0.6217 c 22.3618,1.02073 47.4016,6.11957 69.822,14.21782 10.6738,3.85537 29.9161,12.82269 37.4107,17.43411 l 4.7162,2.90196 5.2116,-7.93816 c 2.8664,-4.36599 5.5493,-7.93816 5.9621,-7.93816 1.0929,0 25.4537,17.65009 40.15,29.08977 61.0284,47.50476 106.6314,97.14181 127.5256,138.80633 2.9247,5.83215 5.3186,11.05528 5.3197,11.60698 0,0.65181 12.3461,1.0021 35.252,1.00029 23.0001,-0.002 38.7252,0.44619 45.25,1.28918 41.4546,5.3558 66.087,11.93038 91.5,24.42208 13.9485,6.85638 14.8803,7.51076 24.5,17.20641 6.1284,6.17684 11.5928,12.80303 14.114,17.11508 8.1602,13.95621 13.7611,31.11517 16.4721,50.46388 1.6437,11.73156 1.4076,42.17501 -0.4266,55 -0.8259,5.775 -1.7785,14.1 -2.1167,18.5 -1.0989,14.29291 -12.9839,87.52009 -20.0955,123.81392 -5.1984,26.52959 -15.7615,57.7311 -26.9494,79.60319 -8.0582,15.75385 -16.3677,27.76734 -27.1887,39.30851 -25.5904,27.29351 -38.8829,48.9411 -51.1337,83.27438 -13.0162,36.47813 -24.6233,62.11681 -31.8738,70.40521 -11.0162,12.59321 -32.4824,19.73392 -66.9462,22.26965 l -16.1446,1.18786 -3.3554,6.98934 c -8.8617,18.45869 -32.0283,49.92554 -63.6745,86.48834 l -10.681,12.3403 -3,-9.6049 -3,-9.605 -40.9551,36.4762 c -22.5253,20.0619 -41.0141,36.3809 -41.0862,36.2646 -0.072,-0.1164 2.7115,-22.4866 6.1857,-49.7116 6.9968,-54.8284 7.4653,-62.058 4.5238,-69.79954 -3.7867,-9.96562 -13.2057,-18.47085 -25.5224,-23.04631 -5.1271,-1.90465 -5.4596,-1.89764 -91.6458,1.9351 -47.575,2.11568 -88.3302,3.86111 -90.5672,3.87872 l -4.0671,0.032 -1.8191,7.75 c -1.0005,4.2625 -3.8134,13.60003 -6.2508,20.75003 -14.9183,43.7614 -41.9793,78.0456 -77.9042,98.6984 -19.4308,11.1706 -30.8292,14.5059 -74.3916,21.7676 -57.6455,9.6093 -101.3226,13.8049 -153.3069,14.7266 -33.4697,0.5934 -33.8358,0.578 -36.7095,-1.5466 -1.5964,-1.1803 -3.4833,-2.1425 -4.1931,-2.1383 -0.7098,0 -23.9817,9.9042 -51.7155,22 -27.7337,12.0958 -50.7281,21.9923 -51.0986,21.9923 -0.3705,0 7.4768,-22.6125 17.4384,-50.25 l 18.1119,-50.25 27.7532,-11.1413 c 15.2643,-6.1277 28.4208,-11.6953 29.2367,-12.3724 2.1197,-1.7593 1.8425,-5.5803 -1.0144,-13.98 -1.3739,-4.0392 -2.3523,-7.4896 -2.1742,-7.6676 0.178,-0.178 4.3395,-1.0163 9.2478,-1.863 28.6926,-4.9493 60.349,-18.0789 88.9746,-36.9026 13.2659,-8.7234 14.6558,-10.47921 10.736,-13.56248 -2.6118,-2.05446 -3.3697,-2.10881 -21.2474,-1.52362 -10.1965,0.33375 -70.0529,1.72753 -133.0144,3.09729 l -114.4753,2.49047 -2.5247,2.18295 c -1.3885,1.20063 -6.1464,5.69614 -10.5731,9.99009 l -8.0484,7.807 -20.9516,-2.9667 c -42.5939,-6.0314 -73.7684,-8.1598 -119.45425,-8.1556 -43.54536,0 -72.80181,1.8921 -110.99725,7.1634 -106.70008,14.7257 -187.02068,46.841 -266.78716,106.6719 C 533.72199,1154.8899 480.14811,1209.9159 440,1265.9709 l -8.5,11.8677 -53,40.6532 c -29.15,22.3593 -53.98807,41.6331 -55.19571,42.8307 -1.42358,1.4118 -11.74887,28.0241 -29.36199,75.6775 -14.94145,40.425 -27.47306,73.8347 -27.84802,74.2437 -0.37497,0.4091 -14.27457,-18.7812 -30.88802,-42.645 z m 215.61704,-30.658 -32.67669,-43.8377 18.5902,-25.6759 18.5902,-25.6759 -1.1635,-8.739 C 453.52358,1329.2058 453,1324.5834 453,1323.7402 c 0,-0.8433 3.3604,-3.6276 7.46755,-6.1875 25.46675,-15.8727 47.2133,-38.8188 58.8089,-62.0527 4.89609,-9.8102 9.25767,-22.676 10.67865,-31.5 0.66428,-4.125 1.37856,-8.4083 1.5873,-9.5185 0.20873,-1.1102 6.80958,-8.9594 14.66856,-17.4427 70.02862,-75.5916 166.7115,-128.0666 276.28904,-149.9569 26.49295,-5.2925 63.60459,-9.7098 74.9869,-8.9255 l 4.98691,0.3436 -171.98691,139.3707 -171.9869,139.3707 -36.81238,81.6293 c -20.24681,44.8961 -37.12181,81.9169 -37.5,82.2685 -0.37819,0.3515 -15.39213,-19.0878 -33.36432,-43.1985 z m 917.4089,-163.1215 c 0.2747,-0.7256 7.153,-24.9442 15.2853,-53.8192 8.1322,-28.875 14.8301,-52.5661 14.8842,-52.6469 0.054,-0.081 10.8983,-1.1051 24.0983,-2.2762 51.7788,-4.594 101.8681,-10.8891 125,-15.7098 34.6694,-7.225 60.6431,-21.4247 82.4203,-45.0587 22.8523,-24.8007 35.7205,-54.0872 42.6465,-97.0584 l 0.5238,-3.25 h 30.8332 30.8331 l 1.1347,7.6292 c 3.8601,25.9538 5.5051,48.5647 5.5561,76.3708 0.058,31.5576 -0.2809,33.9788 -6.8973,49.2925 -5.6931,13.1767 -13.2572,24.2535 -24.0504,35.2193 -15.8497,16.1032 -26.5013,22.0843 -59,33.13 -50.7772,17.2581 -109.6174,28.955 -172.925,34.3759 l -11.925,1.0211 -2.7859,-2.669 -2.7858,-2.669 -4.7892,2.0214 c -2.634,1.1117 -22.1141,9.3447 -43.2891,18.2954 -21.175,8.9507 -40.0226,16.9146 -41.8836,17.6974 -2.7152,1.1423 -3.2849,1.1629 -2.8842,0.1042 z" />
    </g>
  </g>
</svg>