<svg id="Layer_1" data-name="Layer 1" xmlns="http://www.w3.org/2000/svg" viewBox="0 0 722.35 1132.22">
  <ellipse fill="#0f0e0e" cx="361.18" cy="880.47" rx="98.39" ry="188.6"/>
  <path fill="#0f0e0e" d="M767.3,733.59S686,786.73,708,831s56.35,25.31,59.26-7.59c2.92,32.9,37.25,51.88,59.27,7.59S767.3,733.59,767.3,733.59Z" transform="translate(-406.13 -215.08)"/>
  <path fill="#0f0e0e" d="M860.11,420a62.11,62.11,0,0,0-16.86,3.37C814.86,433,799.69,458.21,798,486.83c-3.88,64.54,29.8,291,167.11,265.74,39.31-7.25,74-28.42,64.21-71.73C1019.7,638.5,987.79,606,964,570.92c-25.2-37.18-30.62-83.45-54-121.67C898.06,429.86,880.75,418.92,860.11,420Z" transform="translate(-406.13 -215.08)"/>
  <path fill="#0f0e0e" d="M674.5,420a62.11,62.11,0,0,1,16.86,3.37c28.39,9.69,43.56,34.86,45.29,63.48,3.88,64.54-29.8,291-167.11,265.74-39.31-7.25-74-28.42-64.21-71.73,9.58-42.34,41.49-74.81,65.3-109.92,25.2-37.18,30.62-83.45,54-121.67C636.55,429.86,653.86,418.92,674.5,420Z" transform="translate(-406.13 -215.08)"/>
</svg>