<svg xmlns="http://www.w3.org/2000/svg" width="722.35" height="1132.22" viewBox="0 0 722.35 1132.22">
  <path id="mouth" fill="#0f0e0e" d="M 361.18,691.87 A 98.39,188.6 0 1,0 361.18,1069.07 A 98.39,188.6 0 1,0 361.18,691.87 Z"/>
  <path id="nose" fill="#0f0e0e" d="M361.17,518.51S279.87,571.65,301.87,615.92s56.35,25.31,59.26-7.59c2.92,32.9,37.25,51.88,59.27,7.59S361.17,518.51,361.17,518.51Z"/>
  <path id="right_eye" fill="#0f0e0e" d="M453.98,204.92a62.11,62.11,0,0,0-16.86,3.37C408.73,217.92,393.56,243.13,391.87,271.75c-3.88,64.54,29.8,291,167.11,265.74c39.31-7.25,74-28.42,64.21-71.73C613.57,423.42,581.66,390.92,557.87,355.84c-25.2-37.18-30.62-83.45-54-121.67C491.93,214.78,474.62,203.84,453.98,204.92Z"/>
  <path id="left_eye" fill="#0f0e0e" d="M268.37,204.92a62.11,62.11,0,0,1,16.86,3.37c28.39,9.69,43.56,34.86,45.29,63.48c3.88,64.54-29.8,291-167.11,265.74c-39.31-7.25-74-28.42-64.21-71.73c9.58-42.34,41.49-74.81,65.3-109.92c25.2-37.18,30.62-83.45,54-121.67C230.42,214.78,247.73,203.84,268.37,204.92Z"/>
</svg>